<svg xmlns="http://www.w3.org/2000/svg" width="323" height="323" fill="none"><path fill="#fff" fill-rule="evenodd" d="M144.436.701c-10.38 1.04-20.56 3.19-32.462 6.854-9.027 2.78-23.242 9.14-31.38 14.038-1.935 1.165-3.883 2.282-4.33 2.483-.445.201-2.228 1.355-3.961 2.564a245 245 0 0 1-4.485 3.07c-9.827 6.414-24.933 20.9-33.965 32.568-1.753 2.264-3.579 4.71-4.058 5.436-.48.725-1.845 2.727-3.036 4.446-6.896 9.964-15.465 27.812-19.2 39.99l-1.964 6.406C2.395 129.001 0 147.334 0 161.379s2.395 32.378 5.595 42.824l1.964 6.405c2.834 9.24 9.147 23.392 14.118 31.648 1.164 1.934 2.282 3.881 2.483 4.327s1.355 2.229 2.564 3.962a247 247 0 0 1 3.07 4.484c6.416 9.827 20.902 24.931 32.572 33.962 2.264 1.752 4.71 3.578 5.437 4.057a352 352 0 0 1 4.447 3.035c9.965 6.895 27.814 15.463 39.994 19.198l6.407 1.964c10.446 3.199 28.782 5.594 42.828 5.594s32.382-2.395 42.829-5.594l6.406-1.964c9.241-2.833 23.394-9.145 31.651-14.116 1.934-1.164 3.882-2.281 4.328-2.483s2.23-1.355 3.963-2.564a252 252 0 0 1 4.484-3.07c9.828-6.414 24.934-20.899 33.966-32.567 1.752-2.264 3.578-4.711 4.058-5.437.479-.725 1.785-2.648 2.901-4.271 11.271-16.392 20.07-38.027 24.143-59.369 3.819-20.006 3.668-42.293-.422-62.299-.891-4.362-1.982-9.109-2.423-10.549l-1.963-6.406c-2.834-9.24-9.147-23.391-14.118-31.647-1.165-1.934-2.282-3.882-2.483-4.328s-1.356-2.229-2.565-3.962a245 245 0 0 1-3.07-4.484c-6.415-9.826-20.902-24.93-32.572-33.962-2.264-1.752-4.718-3.578-5.452-4.057a247 247 0 0 1-4.484-3.07c-1.733-1.209-3.516-2.363-3.963-2.564-.446-.201-2.394-1.319-4.328-2.483-8.257-4.97-22.41-11.282-31.651-14.116l-6.406-1.963c-5.237-1.604-18.665-4.062-26.327-4.82-9.395-.928-24.237-.925-33.545.007m30.179 4.88c11.188 1.146 15.116 1.764 22.844 3.597 15.321 3.633 31.694 10.295 44.365 18.053a227 227 0 0 0 4.558 2.725c6.342 3.617 16.333 11.853 25.507 21.026s17.412 19.163 21.029 25.504c.497.87 1.723 2.921 2.725 4.558 7.759 12.67 14.422 29.041 18.055 44.36 2.478 10.447 4.413 26.223 4.413 35.975s-1.935 25.528-4.413 35.975c-3.633 15.32-10.296 31.691-18.055 44.361a229 229 0 0 0-2.725 4.557c-3.617 6.341-11.855 16.331-21.029 25.504s-19.165 17.41-25.507 21.027a226 226 0 0 0-4.558 2.724c-12.671 7.758-29.044 14.42-44.365 18.054-10.565 2.504-26.238 4.412-36.258 4.412-9.622 0-25.225-1.929-35.701-4.412-15.321-3.634-31.695-10.296-44.366-18.054a224 224 0 0 0-4.558-2.724c-6.342-3.617-16.332-11.854-25.507-21.027-9.174-9.173-17.411-19.163-21.029-25.504-.496-.87-1.722-2.921-2.725-4.557-7.759-12.67-14.421-29.041-18.055-44.361-2.505-10.563-4.413-26.235-4.413-36.253 0-9.621 1.929-25.223 4.413-35.697 3.634-15.319 10.296-31.69 18.055-44.36a225 225 0 0 0 2.725-4.558c3.618-6.34 11.855-16.33 21.03-25.504 9.173-9.173 19.164-17.41 25.506-21.026a225 225 0 0 0 4.558-2.725c16.649-10.192 39.117-18.184 57.833-20.57 16.564-2.111 23.518-2.322 35.648-1.08m-28.014 28.947v13.105l6.706-.223c6.295-.21 6.867-.321 9.295-1.823 3.727-2.305 5.37-5.69 5.37-11.068 0-5.637-1.58-8.7-5.69-11.03-2.772-1.572-3.384-1.695-9.324-1.875l-6.357-.192zm-18.738-8.683c-1.824.539-5.075 1.294-7.223 1.677-2.276.407-4.024 1.009-4.19 1.443-.158.41.227 2.74.854 5.178.628 2.439 1.907 7.72 2.844 11.737s1.778 7.39 1.87 7.494c.092.106 2.922-.475 6.288-1.29l8.15-1.97c1.605-.386 2.029-.745 2.029-1.717 0-.675-.304-1.643-.676-2.15-.632-.862-1.027-.831-6.035.471-4.26 1.107-5.446 1.25-5.789.694-.703-1.137-1.177-4.847-.677-5.297.255-.229 1.68-.705 3.168-1.059 7.035-1.673 6.895-1.604 6.504-3.19-.591-2.394-1.031-2.504-5.93-1.476-2.532.532-4.782.951-4.997.932-.641-.056-1.915-5.068-1.415-5.568.252-.252 2.715-.92 5.473-1.487 2.758-.565 5.14-1.154 5.294-1.308s.116-1.157-.085-2.229c-.423-2.251-.688-2.294-5.457-.885m32.158 1.701c2.011 1.256 2.954 3.999 2.707 7.87-.192 3.02-.439 3.683-1.935 5.18-1.504 1.503-2.153 1.742-5.249 1.94l-3.533.224V26.256l3.411.274c1.875.151 3.945.608 4.599 1.016m50.054 6.02c-3.983 3.498-5.683 4.169-10.85 4.28-3.582.076-4.396.916-2.561 2.64.746.701 2.087 2.413 2.981 3.805 1.338 2.086 1.684 3.308 1.964 6.947.188 2.43.551 4.546.807 4.705.257.158 1.753-.811 3.325-2.154 3.49-2.98 4.389-3.336 9.707-3.827 2.354-.217 4.193-.64 4.193-.962 0-.316-.8-1.573-1.778-2.794-3.426-4.277-3.847-5.265-4.152-9.75-.175-2.58-.546-4.37-.931-4.496-.351-.116-1.568.606-2.705 1.605Zm-109.83 2.212c-.946.35-1.863.78-2.039.96-.284.29 1.042 3.582 4.012 9.953 1.87 4.014 4.772 10.811 5.137 12.037.2.67.724 1.218 1.165 1.218.649 0 3.77-1.339 4.427-1.898.088-.076-.449-1.445-1.193-3.042-3.291-7.061-8.437-18.89-8.437-19.394 0-.692-.876-.645-3.072.166m-16.468 9.48c-.71.551-3.543 2.512-6.295 4.36-2.752 1.846-5.004 3.596-5.004 3.888s1.869 3.26 4.153 6.596l6.842 9.987c1.479 2.157 2.986 3.922 3.348 3.922.861 0 3.511-2.09 3.511-2.769 0-.29-1.208-2.316-2.685-4.505l-2.686-3.979L89 59.968c2.221-1.536 4.038-3.116 4.038-3.511 0-.396-.455-1.281-1.011-1.968l-1.011-1.249-4.145 2.811c-2.28 1.547-4.256 2.813-4.392 2.813-.61 0-3.064-4.378-2.816-5.024.153-.397 2.126-1.925 4.385-3.395s4.11-2.862 4.114-3.096c.013-.833-1.753-3.092-2.417-3.092-.372 0-1.257.45-1.967 1.001ZM244.89 63.056c-4.203 4.091-8.216 8.022-8.917 8.735l-1.277 1.296 1.88 1.88 1.88 1.88 2.389-2.365c1.314-1.3 3.036-2.945 3.826-3.655l1.436-1.29 3.344 3.59c1.84 1.974 3.576 3.589 3.859 3.589.618 0 2.538-2.218 2.563-2.96.01-.29-1.493-2.052-3.341-3.916l-3.359-3.39 1.842-1.9c1.013-1.044 2.093-1.9 2.4-1.9s2.321 1.753 4.478 3.895l3.922 3.894 1.366-1.283c.752-.707 1.367-1.453 1.367-1.658 0-.611-10.886-11.88-11.476-11.88-.298 0-3.98 3.347-8.182 7.438m-90.444.473c-4.831.388-15.578 2.392-20.289 3.782-8.593 2.535-15.676 5.716-23.896 10.731-6.618 4.039-7.923 4.99-13.498 9.847-11.442 9.967-20.183 22.45-26.454 37.78-2.259 5.519-4.1 12.097-5.451 19.481-1.68 9.178-1.68 23.28 0 32.459 2.473 13.506 6.263 23.494 13.275 34.982 4.038 6.617 4.99 7.923 9.848 13.496 9.968 11.441 22.452 20.181 37.783 26.452 5.52 2.258 12.1 4.099 19.484 5.45 9.179 1.681 23.283 1.681 32.462 0 13.508-2.472 23.497-6.262 34.987-13.273 6.618-4.038 7.924-4.991 13.498-9.847 11.442-9.967 20.183-22.45 26.455-37.779 4.543-11.104 6.64-22.381 6.64-35.711 0-13.409-2.06-24.423-6.728-35.975-2.862-7.084-7.722-15.944-12.157-22.163-4.38-6.144-14.636-16.399-20.78-20.778-12.627-9.002-26.8-14.991-41.644-17.598-6.124-1.075-18.234-1.763-23.535-1.336m-94.641 1.783c-.832.868-1.426 1.824-1.319 2.123.31.867 17.098 17.94 17.598 17.898.248-.022 1.116-.841 1.928-1.82l1.478-1.782-8.742-8.999c-4.808-4.95-8.897-9-9.086-9s-1.025.711-1.857 1.58m120.07 5.134c19.432 4.295 33.582 11.943 47.093 25.452 13.485 13.483 21.029 27.417 25.493 47.088 1.35 5.948 1.476 7.465 1.499 18.123.023 10.197-.13 12.364-1.239 17.581-4.191 19.713-12.114 34.533-25.753 48.17-13.482 13.481-27.397 21.014-47.093 25.494-6.01 1.367-7.378 1.477-18.396 1.477s-12.385-.11-18.395-1.477c-19.697-4.48-33.611-12.013-47.094-25.494-13.482-13.48-21.015-27.393-25.496-47.088-1.368-6.009-1.477-7.376-1.477-18.393s.11-12.384 1.477-18.393c4.48-19.695 12.014-33.607 25.496-47.088 13.153-13.15 27.648-21.121 45.741-25.15 8.267-1.84 11.067-2.087 21.642-1.907 8.415.143 11.043.399 16.502 1.605m83.861 13.336c-5.356 3.225-10.1 6.083-10.541 6.35-.697.422-.661.782.27 2.726.59 1.23 1.27 2.241 1.509 2.245s2.052-.969 4.028-2.16l3.593-2.167 1.054 1.665 1.054 1.664-1.269 2.26a70 70 0 0 1-2.512 4.094c-1.462 2.156-1.484 2.354-.468 4.319 1.679 3.245 2.214 3.143 4.408-.848 3.067-5.58 3.124-5.625 5.659-4.63 1.936.761 2.331.753 4.541-.09 1.332-.51 3.189-1.8 4.128-2.87 1.567-1.784 1.689-2.193 1.487-4.985-.183-2.531-.747-3.925-3.358-8.3-1.726-2.892-3.296-5.23-3.491-5.198-.194.033-4.735 2.7-10.092 5.925m-214.385-2.12c-.965.27-2.578 1.316-3.584 2.322-2.067 2.067-6.834 8.97-6.834 9.895 0 .76 19.203 14.206 20.289 14.206.298 0 1.125-.857 1.84-1.906 1.489-2.186 1.57-2.059-3.328-5.192-1.413-.903-2.569-1.804-2.567-2.002s.55-1.032 1.217-1.854l1.215-1.495 4.816.63 4.816.632 1.526-1.841c.84-1.013 1.534-2.12 1.542-2.461.009-.389-1.654-.757-4.45-.986-6.302-.516-6.356-.541-6.356-2.988 0-4.422-5.572-8.245-10.142-6.96m225.426 5.936c.919 1.717 1.196 2.859.94 3.88-.423 1.683-3.139 3.308-4.703 2.812-1.05-.334-4.302-4.566-4.302-5.6 0-.629 5.412-3.784 6.222-3.629.298.058 1.127 1.2 1.843 2.537m-221.1.585c.52.603.946 1.565.946 2.139 0 1.183-1.873 5.085-2.681 5.584-.61.376-2.74-.657-5.3-2.572l-1.76-1.317 1.868-2.36c2.72-3.434 4.84-3.886 6.926-1.474ZM31.73 109.58c-1.532 3.552-4.59 11.729-4.783 12.79-.158.863 1.175 1.565 8.47 4.461 4.76 1.89 9.946 3.953 11.523 4.584 1.578.631 3.013 1.003 3.19.826.446-.446 2.812-6.102 3.685-8.81.398-1.234 1.107-2.987 1.577-3.896 1.234-2.384 1.067-3.148-.831-3.809-2.097-.731-2.408-.539-3.204 1.977-1.25 3.947-3.399 8.274-3.984 8.025-.328-.14-1.508-.552-2.624-.915-2.424-.791-2.511-1.461-.71-5.43 2.21-4.87 2.286-5.771.538-6.436-.826-.313-1.777-.465-2.112-.337-.336.129-1.303 2.026-2.15 4.215-.846 2.19-1.763 4.267-2.036 4.618-.751.965-5.298-.838-5.298-2.101 0-.924 1.066-3.9 2.91-8.124l.88-2.014-1.597-.826c-2.24-1.158-2.46-1.081-3.444 1.202m95.939 1.623c.005.42 3.378 3.959 22.043 23.124 6.026 6.188 10.956 11.458 10.956 11.713s-7.548.462-16.773.462h-16.772l.018 17.717.018 17.717 9.257 9.468c19.985 20.437 24.377 24.885 24.574 24.885.112 0 .268-7.73.346-17.177l.143-17.176 16.994-.27 16.995-.271-12.402-12.713c-17.032-17.459-20.775-21.388-20.775-21.805 0-.197 7.486-.423 16.637-.502l16.637-.143.054-17.041c.03-9.373-.057-17.345-.193-17.717-.194-.531-7.491-.676-34.005-.676-18.566 0-33.755.182-33.752.405m138.502 1.989c0 .487.353 1.731.784 2.762.742 1.776.925 1.876 3.409 1.876 1.443 0 2.904.281 3.246.622.343.343 1.05 2.435 1.572 4.65.896 3.798.897 4.057.024 4.546-.509.285-1.575 1.077-2.369 1.759-1.404 1.208-1.424 1.308-.738 3.758.388 1.385.783 2.518.878 2.518.166 0 21.383-15.03 21.804-15.446.113-.111-.252-1.655-.811-3.43l-1.017-3.227-4.329-.299c-2.38-.165-8.406-.452-13.39-.638-8.173-.305-9.063-.251-9.063.549m18.374 8.111c-2.22 1.613-4.232 2.744-4.471 2.513-.239-.23-.776-1.549-1.192-2.931l-.756-2.514h10.456zM23.784 137.779c0 .558-.152 1.771-.336 2.695l-.336 1.68 6.964 3.287c3.83 1.808 8 3.821 9.268 4.474l2.304 1.186-3.115.664c-1.715.365-6.158 1.174-9.875 1.798s-6.857 1.232-6.977 1.353c-.12.12-.337 1.458-.483 2.973l-.265 2.755 2.102-.358c1.156-.197 4.05-.799 6.43-1.339s7.142-1.508 10.58-2.153c3.44-.645 6.515-1.338 6.834-1.54.32-.202.747-1.827.952-3.612l.371-3.246-11.803-5.829c-6.492-3.206-11.986-5.824-12.21-5.816-.223.008-.405.47-.405 1.028m261.188 3.732-9.603.147v4.844h7.845c4.869 0 7.845.205 7.845.541 0 .298-.263.541-.585.541-.323 0-2.209.695-4.193 1.544-1.985.849-5.251 2.242-7.26 3.096-3.276 1.392-3.652 1.709-3.652 3.073 0 1.299.376 1.685 2.57 2.633 2.607 1.128 7.613 3.089 12.038 4.717l2.435.896-8.387.271-8.386.27-.165 2.588-.166 2.588 12.261-.057c6.743-.032 12.6-.187 13.015-.347.523-.201.755-1.232.755-3.36v-3.071l-8.657-3.43c-4.761-1.886-8.653-3.583-8.649-3.769s2.378-1.299 5.275-2.473 6.79-2.82 8.649-3.657l3.382-1.523v-2.633c0-3.269-.729-3.927-4.134-3.73-1.446.084-6.951.219-12.233.301m-9.845 36.004c-.78 2.822-3.518 13.363-3.76 14.478-.268 1.238-.074 1.471 1.687 2.01 1.094.336 2.014.558 2.045.494.05-.105 2.146-7.79 2.798-10.261.294-1.115.559-1.139 3.725-.342 1.322.333 2.402.881 2.402 1.217-.001.337-.571 2.742-1.268 5.344l-1.265 4.732 1.927.532c1.06.293 2.085.354 2.278.137s.778-2.256 1.3-4.529c1.31-5.695 1.222-5.604 4.594-4.795 2.473.593 2.78.816 2.517 1.827-.835 3.216-2.434 10.33-2.342 10.419.058.056.982.266 2.053.466l1.948.364 1.689-6.401c.929-3.521 1.756-7.23 1.839-8.243.134-1.634-.031-1.893-1.472-2.306-1.712-.491-19.863-5.171-21.539-5.553-.539-.123-1.059.062-1.156.41m-238.03 12.401c-1.465 7.594-1.37 7.383-4.901 10.949-1.867 1.885-3.245 3.669-3.063 3.963s1.71.791 3.395 1.102c4.59.849 6.459 1.817 9.408 4.873 1.473 1.526 2.927 2.776 3.23 2.778.305.002.858-1.602 1.23-3.565.877-4.62 1.794-6.314 5.03-9.295 2.916-2.686 3.293-3.764 1.439-4.121-7.653-1.475-7.56-1.435-10.98-4.72-1.823-1.749-3.594-3.181-3.935-3.181-.34 0-.725.548-.854 1.217Zm230.935 13.819-1.2 2.363c-.098.197 1.537 1.292 3.634 2.434s3.815 2.354 3.817 2.692c.002.34-.422 1.132-.943 1.76-.826.997-1.56 1.151-5.73 1.201l-4.783.057-1.595 2.511-1.594 2.511 5.594.153 5.593.152.645 2.411c.927 3.465 4.052 5.669 8.036 5.669 2.564 0 3.139-.222 5.059-1.956 1.191-1.076 2.166-2.129 2.166-2.341 0-.211 1.097-2.42 2.439-4.909s2.255-4.694 2.029-4.9-3.332-1.898-6.903-3.759-8.461-4.434-10.867-5.718l-4.375-2.335zm14.169 10.97c1.599.915 2.907 1.779 2.907 1.921 0 .531-1.786 3.756-2.584 4.667-1.863 2.125-6.613.549-6.616-2.195-.001-1.591 2.144-6.055 2.911-6.055.262 0 1.784.748 3.382 1.662M70.854 238.021a1007 1007 0 0 0-7.947 6.514c-2.438 2.019-4.63 3.662-4.87 3.65s-1.39-1.229-2.556-2.705c-1.164-1.476-2.4-2.683-2.745-2.683-.347 0-1.147.55-1.78 1.223l-1.15 1.225L55.222 252c2.977 3.716 5.949 7.299 6.604 7.963l1.19 1.208 1.59-1.268 1.592-1.268-2.286-2.87c-1.257-1.578-2.217-3.045-2.134-3.259.136-.352 4.575-4.096 9.91-8.357 1.118-.893 2.96-2.386 4.093-3.318l2.06-1.696-1.734-1.978-1.735-1.978-3.516 2.842Zm165.887 7.93c-.153.247.074 1.769.503 3.381s.783 3.714.786 4.669c.007 1.772-1.852 7.433-2.856 8.699-1.129 1.425.394 1.741 4.379.91 4.402-.918 5.587-.774 9.933 1.206 1.684.768 3.441 1.25 3.903 1.073.752-.289.758-.6.055-2.917-1.277-4.207-1.028-7.807.805-11.655.882-1.851 1.419-3.55 1.195-3.774s-2.183-.038-4.352.415c-4.488.935-6.76.68-10.467-1.178-2.751-1.378-3.452-1.528-3.884-.829m-149.155 4.014c-.022.372-.328 2.618-.679 4.992l-.639 4.315-2.702.45c-5.134.854-8.241 5.856-6.686 10.765.61 1.927 1.577 3.004 5.607 6.244 2.678 2.153 5.235 3.91 5.68 3.904.447-.006 1.448-.914 2.224-2.019 1.73-2.459 10.428-13.852 12.25-16.044l1.325-1.593-1.813-1.503c-.996-.827-2.055-1.5-2.353-1.496-.297.004-1.623 1.458-2.946 3.232-1.324 1.773-2.681 3.224-3.017 3.224s-1.114-.548-1.73-1.217c-1.085-1.182-1.094-1.357-.334-6.076l.784-4.858-1.789-1.484c-1.93-1.601-3.117-1.914-3.182-.836m23.556 15.389c-.472.72-.782 1.674-.69 2.12.093.445 2.36 1.795 5.039 2.999s4.964 2.28 5.079 2.39c.116.109-.296 1.362-.917 2.783-1.292 2.962-1.355 2.968-6.417.65-4.427-2.027-5.334-2.015-6.065.082l-.58 1.665 4.72 2.175c2.596 1.197 4.807 2.259 4.913 2.361.283.271-1.629 5.107-2.145 5.426-.241.148-.874.028-1.407-.268s-2.857-1.385-5.165-2.419l-4.197-1.881-.808 1.562c-1.352 2.615-1.774 2.228 6.225 5.701a469 469 0 0 1 6.38 2.816c1.652.759 1.837.744 2.553-.201.425-.56.78-1.234.789-1.496.015-.405 4.726-11.112 8.122-18.457l1-2.164-2.523-1.188a306 306 0 0 0-5.77-2.615 236 236 0 0 1-5.262-2.389c-2.011-.96-2.017-.96-2.874.348m-23.081.379c.804.416 1.86 1.207 2.347 1.758.83.94.754 1.177-1.238 3.842-1.167 1.563-2.313 2.84-2.547 2.84s-1.442-.871-2.686-1.935c-2.606-2.231-2.933-4.042-1.085-6.009 1.34-1.426 3.087-1.593 5.209-.496m115.89 1.983a544 544 0 0 1-8.028 2.451l-5.052 1.501.328 1.641c.18.903.507 1.818.724 2.032.374.369 5.3-.842 9.215-2.266.983-.357 1.911-.525 2.063-.373s.605 1.517 1.004 3.032l.727 2.755-3.331 1.022c-1.832.562-4.148 1.198-5.146 1.414-1.677.362-1.79.516-1.488 2.027.18.9.327 1.848.327 2.109 0 .725 1.35.572 5.027-.571 5.8-1.802 5.688-1.789 6.254-.73.29.54.689 1.852.889 2.915l.363 1.932-5.455 1.729c-3 .951-5.454 1.948-5.454 2.215 0 1.192 1.12 3.262 1.766 3.262.749 0 15.092-4.234 15.406-4.548.266-.266-4.81-17.983-6.46-22.554l-.703-1.945zm-28.407 11.156c-1.189 2.287-2.405 4.225-2.703 4.308-.297.083-1.709-1.666-3.136-3.887l-2.595-4.038h-2.59c-1.425 0-2.738.149-2.92.33-.292.292 1.963 4.383 2.8 5.08.577.48 4.924 6.967 4.924 7.348 0 .202-1.46 3.021-3.246 6.264-1.785 3.243-3.246 6.132-3.246 6.421 0 .608 4.306.7 5.204.111.332-.219 1.532-2.176 2.667-4.348 1.134-2.173 2.244-4.063 2.465-4.199.222-.137 1.58 1.519 3.02 3.679l2.617 3.929 2.835.163c1.797.104 2.834-.053 2.834-.43 0-.328-1.705-3.058-3.788-6.068s-3.787-5.714-3.787-6.01 1.461-3.158 3.246-6.362c1.786-3.203 3.246-5.965 3.246-6.136s-1.279-.313-2.843-.313h-2.843zm-27.001-3.008c-.131.409-.401 1.961-.6 3.449-.482 3.607-.909 4.044-3.388 3.468-3.315-.769-6.528-.557-8.754.578-1.732.884-2.303 1.615-3.262 4.177-1.021 2.73-1.083 3.385-.511 5.428 1.194 4.265 4.304 5.875 15.43 7.988l1.669.317.911-4.486c2.787-13.727 3.94-20.217 3.65-20.553-.178-.208-1.355-.543-2.615-.744-1.713-.274-2.351-.179-2.53.378m-2.651 11.487c.143.142-.04 2.12-.407 4.394l-.667 4.136-2.22-.345c-3.285-.511-4.891-1.867-5.096-4.302-.13-1.537.136-2.367 1.082-3.383 1.12-1.204 1.561-1.316 4.151-1.054 1.594.161 3.014.41 3.157.554" clip-rule="evenodd"/></svg>